HIERARCHY
ROOT Hips
{
  OFFSET 2.59399e-05 120.011 0
  CHANNELS 6 Xposition Yposition Zposition Zrotation Xrotation Yrotation
  JOINT RightUpLeg
  {
    OFFSET -12.8929 0 0
    CHANNELS 3 Zrotation Xrotation Yrotation
    JOINT RightLeg
    {
      OFFSET 0 -60.3041 0
      CHANNELS 3 Zrotation Xrotation Yrotation
      JOINT RightFoot
      {
        OFFSET 0 -53.4222 0
        CHANNELS 3 Zrotation Xrotation Yrotation
        JOINT RightToeBase
        {
          OFFSET 0 -5.41187 17.795
          CHANNELS 3 Zrotation Xrotation Yrotation
          End Site
          {
            OFFSET 0 0 11.0798
          }
        }
      }
    }
  }
  JOINT LeftUpLeg
  {
    OFFSET 12.8929 0 0
    CHANNELS 3 Zrotation Xrotation Yrotation
    JOINT LeftLeg
    {
      OFFSET 0 -60.3041 0
      CHANNELS 3 Zrotation Xrotation Yrotation
      JOINT LeftFoot
      {
        OFFSET 0 -53.4221 0
        CHANNELS 3 Zrotation Xrotation Yrotation
        JOINT LeftToeBase
        {
          OFFSET 0 -5.41187 17.795
          CHANNELS 3 Zrotation Xrotation Yrotation
          End Site
          {
            OFFSET 0 0 11.0798
          }
        }
      }
    }
  }
  JOINT Spine
  {
    OFFSET 0 0.123192 0
    CHANNELS 3 Zrotation Xrotation Yrotation
    JOINT Spine1
    {
      OFFSET 0 41.8862 0
      CHANNELS 3 Zrotation Xrotation Yrotation
      JOINT RightShoulder
      {
        OFFSET 0 31.7409 0
        CHANNELS 3 Zrotation Xrotation Yrotation
        JOINT RightDummyShoulder
        {
          OFFSET 0 0 0
          CHANNELS 3 Zrotation Xrotation Yrotation
          JOINT RightArm
          {
            OFFSET -26.6195 -0.000152588 0
            CHANNELS 3 Zrotation Xrotation Yrotation
            JOINT RightForeArm
            {
              OFFSET -34.6831 -8.81118e-05 -7.64892e-05
              CHANNELS 3 Zrotation Xrotation Yrotation
              JOINT RightHand
              {
                OFFSET -29.3377 -0.000122476 0
                CHANNELS 3 Zrotation Xrotation Yrotation
                End Site
                {
                  OFFSET -15.4188 0 0
                }
              }
            }
          }
        }
      }
      JOINT LeftShoulder
      {
        OFFSET 0 31.7409 0
        CHANNELS 3 Zrotation Xrotation Yrotation
        JOINT LeftDummyShoulder
        {
          OFFSET 0 0 0
          CHANNELS 3 Zrotation Xrotation Yrotation
          JOINT LeftArm
          {
            OFFSET 26.6195 -0.000152588 0
            CHANNELS 3 Zrotation Xrotation Yrotation
            JOINT LeftForeArm
            {
              OFFSET 34.6831 -7.98427e-05 -8.16574e-05
              CHANNELS 3 Zrotation Xrotation Yrotation
              JOINT LeftHand
              {
                OFFSET 29.3377 -0.000123325 0
                CHANNELS 3 Zrotation Xrotation Yrotation
                End Site
                {
                  OFFSET 15.4188 0 0
                }
              }
            }
          }
        }
      }
      JOINT Neck
      {
        OFFSET 0 24.8104 0
        CHANNELS 3 Zrotation Xrotation Yrotation
        JOINT Head
        {
          OFFSET 0 21.3219 0
          CHANNELS 3 Zrotation Xrotation Yrotation
          End Site
          {
            OFFSET 0 17.7899 0
          }
        }
      }
    }
  }
}
MOTION
Frames:	12
Frame Time:	0.0333333
46.6942 43.5984 0.488651 -0.722988 13.6433 1.54671 -92.2124 -57.9099 -115.683 179.997 39.8447 -173.071 -46.0509 -47.453 -19.9076 2.33145 -8.43947 -1.56488 101.384 -51.8754 117.501 -179.999 39.7001 147.823 40.4935 -39.7405 14.8847 0.658933 10.269 -4.06842 8.66564 57.7415 -2.95151 -4.30993 -9.37095 3.03321 12.5532 5.52106 24.0965 1.59028e-15 0 4.17448e-15 -2.40246 -18.8338 55.0532 5.00032 -33.1566 -8.4679e-05 18.1969 0.825929 5.15649 -7.07372 3.27968 -18.5279 -1.59028e-15 3.18055e-15 9.93923e-16 -19.1582 -15.0763 -86.8876 -4.81094 -24.7752 0.000596248 -25.3654 0.850014 -3.77971 6.62844 -33.919 2.00307 -2.90661 6.01575 2.50348 
46.6017 42.8564 0.93406 -0.71998 12.867 1.63253 -91.2023 -57.6342 -114.482 -179.999 38.8109 -172.79 -46.0591 -48.2229 -20.2786 2.1016 -7.74296 -0.697656 100.954 -52.009 116.374 -180 38.7998 147.59 41.1425 -40.4095 15.4302 0.513462 11.0278 -3.69917 8.45172 57.3224 -2.85995 -4.1202 -9.69025 2.92364 12.8416 5.65287 24.3765 -1.98785e-15 6.36111e-15 5.56597e-15 -2.58339 -17.6928 54.5508 5.27386 -33.6652 -0.000102853 18.6878 0.801978 4.87064 -7.66484 3.38506 -18.4557 1.98785e-15 3.18055e-15 -0 -19.4099 -13.9321 -86.1527 -5.0887 -25.1158 0.00168733 -25.9911 0.842737 -3.65029 6.78515 -33.6651 1.83393 -3.14447 5.79123 2.4294 
46.7091 42.8789 1.15796 -0.750257 12.844 1.33532 -90.9546 -57.843 -114.147 179.998 38.8263 -173.158 -46.4282 -47.951 -20.3044 2.1825 -8.14397 -0.254845 100.345 -51.9062 115.676 -180 38.7092 147.578 41.729 -40.9048 15.8836 0.594213 11.3708 -3.9713 8.41014 56.4576 -2.67289 -4.40618 -9.7339 2.95303 12.47 5.5817 24.4932 7.95139e-16 -3.18055e-15 2.38542e-15 -1.52208 -17.4828 54.3785 5.04943 -32.7021 -0.000138319 18.21 0.777489 4.8493 -8.45927 3.47773 -18.0547 -7.95139e-16 -3.18055e-15 -7.95139e-16 -19.7402 -13.2325 -85.9758 -5.15275 -23.9252 0.000819763 -25.9342 0.852584 -3.70157 6.13456 -34.296 1.58244 -2.4957 5.91583 1.99739 
46.7533 44.0303 0.896805 -0.618643 13.6979 1.21765 -91.2933 -57.9205 -114.726 -179.998 40.1414 -173.133 -46.6871 -46.8253 -19.8944 2.59639 -9.62193 -0.580282 100.113 -51.9835 116.111 -179.997 39.975 148.036 41.7068 -40.1709 15.5356 0.798268 9.77035 -4.46716 8.63391 55.5395 -2.89717 -5.0923 -10.2374 2.77129 12.6791 5.58919 24.2705 2.38542e-15 6.36111e-15 -3.97569e-16 -1.53165 -16.7678 54.8949 5.38848 -34.4328 -9.79468e-05 18.4801 0.777124 4.77515 -8.05664 3.37456 -17.905 1.19271e-15 0 -7.95139e-16 -20.3162 -12.6958 -85.4762 -5.10342 -24.6614 0.00107918 -25.7395 0.839595 -3.67362 6.74582 -35.393 1.74515 -3.00966 6.20026 2.20248 
46.5733 46.2828 0.102362 -0.405779 15.5513 1.15295 -92.8111 -58.1178 -116.949 -179.996 42.8053 -172.383 -46.0749 -44.4925 -18.5609 2.95896 -10.8372 -2.10436 100.74 -52.504 117.728 179.995 42.6484 148.37 40.1463 -39.1461 14.5001 0.70916 9.68769 -4.1741 8.49209 54.4718 -2.8762 -5.60626 -11.2988 2.73237 12.844 5.63666 24.2961 5.56597e-15 0 3.97569e-15 -1.42007 -16.494 54.9355 5.473 -34.11 -0.000168745 18.3009 0.834733 5.1786 -8.61268 3.50211 -18.0263 -3.97569e-15 0 -1.78906e-15 -19.012 -12.3617 -84.5334 -5.55953 -25.4742 -0.000406563 -25.6766 0.83463 -3.66111 6.67104 -35.8589 1.73167 -3.01683 6.18322 2.15953 
46.5453 49.3976 -0.798912 -0.205095 18.1155 1.0068 -94.5848 -58.3601 -119.389 179.998 46.3064 -171.358 -44.6754 -42.9348 -17.3258 2.80815 -10.2477 -2.00166 101.06 -52.9757 119.535 -179.993 46.1739 148.301 38.1571 -38.5476 13.542 0.626487 10.359 -3.98771 7.92997 52.7943 -2.45233 -5.85722 -11.7237 2.75203 13.1486 5.66419 24.057 -7.95139e-16 0 -6.55989e-15 -1.60019 -16.336 55.0692 5.40708 -33.1235 -8.77392e-05 18.2061 0.803049 5.00917 -8.21962 3.46357 -18.2581 1.19271e-15 3.18055e-15 3.97569e-16 -20.0217 -12.3562 -84.2844 -5.1139 -24.4743 0.00168196 -25.6279 0.936157 -4.11461 7.17076 -36.8403 1.76914 -3.4709 6.22063 2.22883 
46.4616 53.3717 -1.95669 0.0134109 21.0826 0.958249 -96.24 -58.7528 -121.976 -179.998 50.908 -170.448 -43.579 -40.2573 -15.7627 2.94467 -10.7795 -1.94622 101.379 -53.9564 121.559 179.989 50.8263 148.551 36.6218 -36.9451 12.3888 0.455387 8.20177 -3.19513 7.56481 51.3693 -2.30083 -6.04041 -12.6403 2.60174 12.8237 5.5328 23.8264 -3.97569e-16 0 -1.98785e-15 -0.38245 -16.2382 55.6402 5.33299 -33.9519 -9.55065e-05 17.706 0.816659 5.23873 -8.66063 3.50622 -17.9929 7.95139e-16 -3.18055e-15 -7.95139e-16 -20.3465 -12.2799 -84.2504 -4.95306 -23.5891 -0.00151653 -25.2331 0.969316 -4.32829 7.10078 -37.8439 1.59111 -3.36953 6.58955 1.98234 
46.2581 57.8535 -3.15963 -0.0396553 24.0156 1.09686 -96.8901 -59.469 -123.671 -179.983 56.2289 -168.972 -41.7268 -37.2534 -13.879 3.19731 -11.7109 -2.89379 101.855 -55.0639 123.282 -179.989 56.054 148.429 33.5708 -35.4553 10.8372 0.403706 9.0597 -3.14744 7.19751 49.9288 -2.08075 -5.95695 -13.3 2.55525 12.9079 5.54365 23.7787 4.19321e-31 6.36111e-15 -3.77691e-15 0.481917 -16.2304 56.0311 5.21734 -32.9029 -0.000127574 17.7175 0.89206 5.71833 -8.76782 3.50246 -17.8461 -1.19271e-15 -9.54166e-15 -1.59028e-15 -20.9941 -12.0126 -84.1485 -4.68639 -21.7549 0.00110922 -24.6898 1.01773 -4.6464 7.33786 -38.1175 1.55803 -3.64588 6.60931 1.99656 
46.1363 62.8964 -4.33204 -0.00298637 27.1571 1.40194 -97.0818 -59.9185 -124.771 179.998 61.8829 -166.871 -38.3566 -36.1716 -12.3731 2.38493 -8.58936 -1.74248 101.873 -56.6392 124.831 -179.992 62.0302 148.929 31.2805 -34.1634 9.68288 0.647251 9.83603 -3.99589 7.55331 48.4645 -2.39173 -6.57399 -13.963 2.31571 13.7845 5.7241 23.5906 1.59028e-15 -3.18055e-15 -5.96354e-16 0.677604 -16.1187 56.0417 5.09944 -31.5808 -6.52597e-05 17.0981 0.837521 5.56772 -8.9489 3.52649 -17.7831 -1.76556e-31 6.36111e-15 1.59028e-15 -21.0805 -11.8185 -84.265 -4.54013 -17.2808 0.000457912 -24.5741 1.2492 -5.73237 7.50572 -38.2207 1.53326 -3.37424 6.6536 1.88737 
45.8702 68.2718 -5.33684 -0.347925 30.5781 1.54531 -96.3704 -60.8298 -125.767 179.965 68.3055 -165.436 -35.8438 -34.5947 -11.0315 1.69529 -6.53492 0.493842 101.554 -57.8276 126.029 179.976 68.6176 148.995 30.1346 -31.006 8.38735 0.56799 6.47849 -3.36462 7.20193 46.6132 -2.06078 -6.37242 -14.4829 2.2829 14.2551 5.86828 23.7099 3.97569e-16 -3.18055e-15 -2.5345e-15 0.776409 -15.4597 55.5386 5.02186 -29.9383 -0.000137858 15.8846 0.808801 5.79356 -9.35342 3.56601 -17.5591 7.95139e-16 0 2.38542e-15 -20.1703 -11.3401 -83.5353 -4.68944 -14.4548 -0.000838139 -23.8828 1.29956 -6.13862 7.27163 -37.7646 1.52526 -2.68057 5.78805 1.71596 
45.6942 73.6577 -6.10473 -0.607979 33.6218 1.74823 -94.214 -61.4975 -125.697 -179.949 75.043 -164.093 -35.3176 -31.1835 -9.74018 2.14153 -8.25186 1.10123 99.8142 -58.953 126.167 -179.969 75.299 148.178 28.4098 -28.5298 7.22534 0.373971 5.67641 -2.58468 7.04169 44.5713 -1.82029 -6.49497 -14.4389 2.3183 15.1119 6.05878 23.5962 -1.98785e-16 -3.18055e-15 4.47266e-16 0.431727 -14.5901 54.6174 5.01597 -28.8579 -4.54308e-05 15.664 0.85772 6.22906 -9.1775 3.55063 -17.6651 3.18055e-15 -3.18055e-15 -1.98785e-15 -19.1115 -10.6265 -82.7328 -5.04314 -14.0257 -0.000775921 -23.0121 1.26932 -6.23088 8.14866 -38.5834 1.65287 -3.18411 6.56771 1.87322 
45.5584 79.1955 -6.74907 -0.636942 36.5478 1.76719 -91.1802 -62.1173 -125.063 -179.901 82.2759 -161.09 -34.1525 -27.1366 -8.14905 2.46615 -9.25718 0.0746445 96.8654 -59.8395 125.781 179.875 82.4249 147.2 27.5466 -25.3673 6.18861 0.312786 4.3767 -2.15847 6.77161 42.3339 -1.60129 -6.55952 -14.2543 2.32304 15.3679 6.16439 23.772 -1.98785e-15 0 -1.19271e-15 0.847122 -13.6513 53.4766 4.84277 -28.4639 -0.000108397 16.108 0.882781 6.23068 -9.76377 3.65629 -17.6269 1.59028e-15 0 4.77083e-15 -18.088 -9.94824 -81.802 -5.21425 -10.9359 -5.80701e-05 -22.5859 1.31383 -6.55976 7.46713 -38.3564 1.57427 -2.72358 5.71403 1.71345 
